# xmcd
#
# Track frame offsets: 
#        150
#        15246
#        31918
#        45678
#        59618
#        75657
#        89991
#        103491
#        118182
#        134290
#        147837
#        164324
#        176625
#        191152
#
# Disc length: 2715 seconds
#
# Revision: 0
# Processed by: cddbd v1.5.2PL0 Copyright (c) Steve Scherf et al.
# Submitted via: ExactAudioCopy v0.95a2
#
DISCID=c90a990e
DTITLE=Snaga und Fard - Talion
DYEAR=2009
DGENRE=Hip Hop
TTITLE0=Intro
TTITLE1=Talion Talion
TTITLE2=Sehnsucht nach mehr
TTITLE3=Wir sind eine Macht
TTITLE4=Du hast recht
TTITLE5=Hand aufs Herz
TTITLE6=Tanz mitdem Teufel
TTITLE7=Ich vergesse nicht
TTITLE8=Illegal
TTITLE9=Biatch
TTITLE10=Yallaaah
TTITLE11=Good Morning Vietnam
TTITLE12=Ihr Geheimnis
TTITLE13=Das letzte mal
EXTD=
EXTT0=
EXTT1=
EXTT2=
EXTT3=
EXTT4=
EXTT5=
EXTT6=
EXTT7=
EXTT8=
EXTT9=
EXTT10=
EXTT11=
EXTT12=
EXTT13=
PLAYORDER=
